# xmcd
#
# Track frame offsets:
#	150
#	14115
#	25065
#	39480
#	50258
#	63961
#	75069
#	87624
#	99174
#	116372
#
# Disc length: 1719 seconds
#
# Revision: 1
# Processed by: cddbd v1.5.2PL0 Copyright (c) Steve Scherf et al.
# Submitted via: audiograbber 1.83.01
#
DISCID=6b06b50a
DTITLE=The Late Bob Wills' The Original Texas Playboys - Today
DYEAR=1977
DGENRE=Country
TTITLE0=Bring It On Down To My House
TTITLE1=Gambling Polka Dot Blues
TTITLE2=Lily Dale
TTITLE3=T-U-L-S-A Straight Ahead
TTITLE4=Osage Stomp
TTITLE5=You're OK
TTITLE6=Sugar Moon
TTITLE7=Panhandle Rag
TTITLE8=The Convict And The Rose
TTITLE9=Party For The Old Folks
EXTD=This CD was created from one of my LP's
EXTT0=
EXTT1=
EXTT2=
EXTT3=
EXTT4=
EXTT5=
EXTT6=
EXTT7=
EXTT8=
EXTT9=
PLAYORDER=
